<svg class="svg-inline--fa fa-times" aria-hidden="true" focusable="false" data-prefix="fas" data-icon="times" role="img" xmlns="http://www.w3.org/2000/svg" viewBox="0 0 352 512">
  <path fill="currentColor" d="M232 256l96.97-96.97c4.69-4.69 4.69-12.28 0-16.97l-16.97-16.97c-4.69-4.69-12.28-4.69-16.97 0L198.06 222.06 101.09 125.09c-4.69-4.69-12.28-4.69-16.97 0L67.15 142.06c-4.69 4.69-4.69 12.28 0 16.97L164.12 256 67.15 352.97c-4.69 4.69-4.69 12.28 0 16.97l16.97 16.97c4.69 4.69 12.28 4.69 16.97 0L198.06 289.94l96.97 96.97c4.69 4.69 12.28 4.69 16.97 0l16.97-16.97c4.69-4.69 4.69-12.28 0-16.97L232 256z"/>
</svg>
